<?xml version="1.0" encoding="UTF-8"?>
<svg xmlns:xlink="http://www.w3.org/1999/xlink" xmlns="http://www.w3.org/2000/svg" viewBox="0 0 50 50" width="50" height="50">
  <path d="M30.8258 21.6547C30.2414 21.6647 29.6958 21.9018 29.2897 22.3221L23.8943 27.9061L21.4608 25.4481C20.6105 24.5894 19.2257 24.5818 18.3663 25.4328C17.509 26.2817 17.502 27.6699 18.3509 28.5274L22.3585 32.5752C23.2205 33.4458 24.6332 33.4398 25.4871 32.556L26.2331 31.784C26.5137 31.4936 26.5058 31.0308 26.2152 30.7502C25.9247 30.4695 25.4618 30.4775 25.1815 30.768C24.4163 31.56 24.3056 31.7594 23.9134 31.7616C23.7209 31.7616 23.5328 31.6832 23.3975 31.5465L19.3899 27.4987C18.9227 27.0268 19.2933 26.2424 19.9094 26.2618C20.1032 26.2628 20.2852 26.3393 20.4217 26.477C23.6418 29.7295 23.4924 29.6829 23.9051 29.6829C24.334 29.6803 23.9464 29.9565 30.3411 23.3382C30.7884 22.8755 31.5781 23.1843 31.5892 23.8302C31.5964 24.2444 31.6701 24.0526 27.5603 28.306C27.2798 28.5965 27.2877 29.0593 27.5782 29.3398C27.8685 29.6204 28.3313 29.6124 28.612 29.3221L32.4371 25.3631C33.784 23.9688 32.7757 21.6198 30.8258 21.6547Z" fill="#4AC7F8"></path>
  <path d="M42.4807 11.5398C38.7094 10.7253 31.8391 8.38592 28.1978 1.86952C26.8045 -0.622278 23.2068 -0.624231 21.8125 1.87001C18.7712 7.31239 13.4664 10.1377 7.44888 11.5585C4.15553 12.3496 2.46617 16.1027 4.04078 19.5617C5.05455 21.8064 6.26314 25.973 6.26314 33.0749C6.26314 36.1039 7.10738 38.8701 8.77232 41.2968C10.3918 43.6574 12.7579 45.64 15.8049 47.1898C20.067 49.3569 24.3352 49.9614 24.5187 49.9866C26.4392 50.2393 43.7473 46.9776 43.7473 33.0749C43.7473 30.1974 43.9487 27.5586 44.346 25.2317C44.4139 24.8338 44.1463 24.456 43.7483 24.3881C43.3504 24.3202 42.9727 24.5877 42.9047 24.9857C42.4936 27.3936 42.2853 30.1152 42.2853 33.0749C42.2853 35.8029 41.5274 38.2909 40.0325 40.4696C38.553 42.6262 36.3697 44.4486 33.543 45.8862C30.2848 47.543 25.7663 48.6757 24.7139 48.5375C24.5443 48.5141 20.5127 47.9431 16.4679 45.8865C11.1994 43.2068 7.72535 38.9358 7.72535 33.0749C7.72535 25.7128 6.44635 21.3354 5.37271 18.9585C4.8565 17.8233 4.68375 16.1818 5.37486 14.8807C5.92789 13.8401 6.92389 13.1628 7.84498 12.9681C11.8552 12.1013 19.1681 9.5994 23.0888 2.58348C23.9248 1.08807 26.0845 1.08573 26.9216 2.5829C30.843 9.60077 38.1598 12.1023 42.1679 12.9681C42.2007 12.9754 42.2273 12.9817 42.2549 12.9888C42.6309 13.0838 43.9146 13.5023 44.6465 14.9016C45.3216 16.1913 45.1536 17.8191 44.6361 18.9627C44.2933 19.7213 43.9808 20.571 43.7073 21.4883C43.5918 21.8752 43.8119 22.2824 44.1988 22.3978C44.586 22.5133 44.9929 22.2931 45.1084 21.9062C45.3633 21.0515 45.6529 20.2638 45.9684 19.5652C47.5456 16.074 45.8437 12.2853 42.4807 11.5398Z" fill="#4AC7F8"></path>
  <path d="M43.3574 15.5752C42.8825 14.667 41.9883 14.4198 41.8878 14.3946C41.88 14.3927 41.8722 14.3908 41.8643 14.3891C37.6119 13.4702 29.8511 10.8066 25.6552 3.29844C25.3743 2.7835 24.6361 2.78535 24.3536 3.2919C20.8899 9.49043 14.9511 12.7662 8.12928 14.3919C8.02948 14.4155 7.14012 14.6483 6.65467 15.5622C6.20526 16.4084 6.33289 17.5641 6.69373 18.3618C7.82557 20.8678 9.17469 25.4547 9.17469 33.0751C9.17469 37.965 11.9232 41.9475 17.1234 44.5923C20.4512 46.2846 24.5955 47.1667 25.1004 47.0984C25.2595 47.0767 29.0419 46.545 32.882 44.5923C38.0819 41.9477 40.8306 37.9651 40.8306 33.0751C40.8306 25.4551 42.1797 20.8683 43.3113 18.3622C43.6333 17.6497 43.8298 16.4774 43.3574 15.5752ZM41.9686 17.7833C40.7799 20.425 39.3684 25.2174 39.3684 33.0751C39.3684 37.3783 36.8963 40.9103 32.2192 43.289C28.8859 44.9841 25.6189 45.5411 25.002 45.6352C24.3844 45.5403 21.1099 44.9792 17.7864 43.289C13.1093 40.9103 10.637 37.3783 10.637 33.0751C10.637 25.2171 9.22557 20.4246 8.03661 17.7828C7.86522 17.3188 7.71463 16.6837 7.94608 16.2481C8.11395 15.932 8.42069 15.8288 8.46883 15.8143C12.7629 14.8837 20.4252 12.2623 25.0025 5.05723C29.5785 12.2596 37.2372 14.8816 41.5327 15.8133C41.5898 15.8314 41.8991 15.9418 42.0618 16.253C42.2898 16.6886 42.1393 17.3213 41.9686 17.7833Z" fill="#4AC7F8"></path>
</svg>
